<svg width="125" height="40" viewBox="0 0 1007 311" fill="none" xmlns="http://www.w3.org/2000/svg">
<path d="M339.853 125.536C332.685 125.536 325.816 124.597 319.245 122.72C312.674 120.757 307.384 118.24 303.373 115.168L310.413 99.552C314.253 102.283 318.776 104.544 323.981 106.336C329.272 108.043 334.605 108.896 339.981 108.896C344.077 108.896 347.362 108.512 349.837 107.744C352.397 106.891 354.274 105.739 355.469 104.288C356.664 102.837 357.261 101.173 357.261 99.296C357.261 96.9067 356.322 95.0293 354.445 93.664C352.568 92.2133 350.093 91.0613 347.021 90.208C343.949 89.2693 340.536 88.416 336.781 87.648C333.112 86.7947 329.4 85.7707 325.645 84.576C321.976 83.3813 318.605 81.8453 315.533 79.968C312.461 78.0907 309.944 75.616 307.981 72.544C306.104 69.472 305.165 65.5467 305.165 60.768C305.165 55.648 306.53 50.9973 309.261 46.816C312.077 42.5493 316.258 39.1787 321.805 36.704C327.437 34.144 334.477 32.864 342.925 32.864C348.557 32.864 354.104 33.5467 359.565 34.912C365.026 36.192 369.848 38.1547 374.029 40.8L367.629 56.544C363.448 54.1547 359.266 52.4053 355.085 51.296C350.904 50.1013 346.808 49.504 342.797 49.504C338.786 49.504 335.501 49.9733 332.941 50.912C330.381 51.8507 328.546 53.088 327.437 54.624C326.328 56.0747 325.773 57.7813 325.773 59.744C325.773 62.048 326.712 63.9253 328.589 65.376C330.466 66.7413 332.941 67.8507 336.013 68.704C339.085 69.5573 342.456 70.4107 346.125 71.264C349.88 72.1173 353.592 73.0987 357.261 74.208C361.016 75.3173 364.429 76.8107 367.501 78.688C370.573 80.5653 373.048 83.04 374.925 86.112C376.888 89.184 377.869 93.0667 377.869 97.76C377.869 102.795 376.461 107.403 373.645 111.584C370.829 115.765 366.605 119.136 360.973 121.696C355.426 124.256 348.386 125.536 339.853 125.536ZM434.15 70.496H477.286V86.624H434.15V70.496ZM435.686 107.36H484.454V124H415.078V34.4H482.79V51.04H435.686V107.36ZM523.993 124V34.4H541.145L594.009 98.912H585.689V34.4H606.169V124H589.145L536.153 59.488H544.473V124H523.993ZM650.408 124V34.4H689.192C697.213 34.4 704.125 35.7227 709.928 38.368C715.731 40.928 720.211 44.64 723.368 49.504C726.525 54.368 728.104 60.1707 728.104 66.912C728.104 73.568 726.525 79.328 723.368 84.192C720.211 89.056 715.731 92.8107 709.928 95.456C704.125 98.016 697.213 99.296 689.192 99.296H661.928L671.144 89.952V124H650.408ZM671.144 92.256L661.928 82.4H688.04C694.44 82.4 699.219 81.0347 702.376 78.304C705.533 75.5733 707.112 71.776 707.112 66.912C707.112 61.9627 705.533 58.1227 702.376 55.392C699.219 52.6613 694.44 51.296 688.04 51.296H661.928L671.144 41.44V92.256ZM749.672 124L789.608 34.4H810.088L850.152 124H828.392L795.624 44.896H803.816L770.92 124H749.672ZM769.64 104.8L775.144 89.056H821.224L826.856 104.8H769.64ZM882.488 124V34.4H903.224V124H882.488ZM339.853 281.536C332.685 281.536 325.816 280.597 319.245 278.72C312.674 276.757 307.384 274.24 303.373 271.168L310.413 255.552C314.253 258.283 318.776 260.544 323.981 262.336C329.272 264.043 334.605 264.896 339.981 264.896C344.077 264.896 347.362 264.512 349.837 263.744C352.397 262.891 354.274 261.739 355.469 260.288C356.664 258.837 357.261 257.173 357.261 255.296C357.261 252.907 356.322 251.029 354.445 249.664C352.568 248.213 350.093 247.061 347.021 246.208C343.949 245.269 340.536 244.416 336.781 243.648C333.112 242.795 329.4 241.771 325.645 240.576C321.976 239.381 318.605 237.845 315.533 235.968C312.461 234.091 309.944 231.616 307.981 228.544C306.104 225.472 305.165 221.547 305.165 216.768C305.165 211.648 306.53 206.997 309.261 202.816C312.077 198.549 316.258 195.179 321.805 192.704C327.437 190.144 334.477 188.864 342.925 188.864C348.557 188.864 354.104 189.547 359.565 190.912C365.026 192.192 369.848 194.155 374.029 196.8L367.629 212.544C363.448 210.155 359.266 208.405 355.085 207.296C350.904 206.101 346.808 205.504 342.797 205.504C338.786 205.504 335.501 205.973 332.941 206.912C330.381 207.851 328.546 209.088 327.437 210.624C326.328 212.075 325.773 213.781 325.773 215.744C325.773 218.048 326.712 219.925 328.589 221.376C330.466 222.741 332.941 223.851 336.013 224.704C339.085 225.557 342.456 226.411 346.125 227.264C349.88 228.117 353.592 229.099 357.261 230.208C361.016 231.317 364.429 232.811 367.501 234.688C370.573 236.565 373.048 239.04 374.925 242.112C376.888 245.184 377.869 249.067 377.869 253.76C377.869 258.795 376.461 263.403 373.645 267.584C370.829 271.765 366.605 275.136 360.973 277.696C355.426 280.256 348.386 281.536 339.853 281.536ZM432.388 280V207.296H403.716V190.4H481.796V207.296H453.124V280H432.388ZM515.993 280V190.4H554.777C562.798 190.4 569.71 191.723 575.513 194.368C581.316 196.928 585.796 200.64 588.953 205.504C592.11 210.368 593.689 216.171 593.689 222.912C593.689 229.568 592.11 235.328 588.953 240.192C585.796 244.971 581.316 248.64 575.513 251.2C569.71 253.76 562.798 255.04 554.777 255.04H527.513L536.729 245.952V280H515.993ZM572.953 280L550.553 247.488H572.697L595.353 280H572.953ZM536.729 248.256L527.513 238.528H553.625C560.025 238.528 564.804 237.163 567.961 234.432C571.118 231.616 572.697 227.776 572.697 222.912C572.697 217.963 571.118 214.123 567.961 211.392C564.804 208.661 560.025 207.296 553.625 207.296H527.513L536.729 197.44V248.256ZM652.23 226.496H695.366V242.624H652.23V226.496ZM653.766 263.36H702.534V280H633.158V190.4H700.87V207.04H653.766V263.36ZM730.297 280L770.233 190.4H790.713L830.777 280H809.017L776.249 200.896H784.441L751.545 280H730.297ZM750.265 260.8L755.769 245.056H801.849L807.481 260.8H750.265ZM863.113 280V190.4H880.265L918.409 253.632H909.321L946.825 190.4H963.849L964.105 280H944.649L944.521 220.224H948.105L918.153 270.528H908.809L878.217 220.224H882.569V280H863.113Z" fill="white"/>
<path d="M79.1395 250.103C83.8058 246.705 90.3634 247.718 93.787 252.365C97.2105 257.012 96.2032 263.533 91.537 266.93L82.7997 273.291C78.1335 276.688 71.5749 275.675 68.1512 271.028C64.7277 266.381 65.735 259.86 70.4012 256.463L79.1395 250.103ZM173.226 106.318C184.787 97.9021 201.035 100.412 209.517 111.925L245.507 160.773C249.973 166.835 251.393 174.184 250.052 181.013C249.354 188.042 245.772 194.755 239.594 199.253L190.301 235.138C189.74 235.546 189.167 235.927 188.585 236.284L155.349 260.48C150.683 263.877 144.126 262.864 140.702 258.218C137.278 253.571 138.286 247.049 142.952 243.652L153.551 235.936C154.969 232.432 154.853 226.567 146.429 229.055L120.11 248.216C115.444 251.613 108.886 250.6 105.463 245.953C102.039 241.306 103.047 234.785 107.713 231.388L158.368 194.51C158.779 194.17 159.203 193.84 159.641 193.521L183.818 175.918L183.741 175.937C185.013 173.967 186.716 169.904 184.848 165.743L182.182 162.125C182.167 162.111 182.16 162.088 182.144 162.074L167.652 142.403C159.17 130.891 161.666 114.735 173.226 106.318Z" fill="white"/>
<path d="M153.604 33.9922C166.752 28.4799 181.926 34.6508 187.495 47.7754C193.063 60.9 186.918 76.0081 173.77 81.5205L128.704 100.413C126.41 101.891 123.039 105.736 124.025 111.368L143.047 156.204C148.639 169.384 142.469 184.554 129.266 190.09C127.936 190.647 126.584 191.084 125.225 191.408L69.3149 214.849C63.9983 217.078 57.8625 214.581 55.6108 209.274C53.3594 203.967 55.8441 197.859 61.1606 195.63L89.3042 183.83C94.3675 179.365 92.9062 170.155 83.1235 170.375L61.9077 179.271C56.5911 181.499 50.4553 179.004 48.2036 173.697C45.9519 168.39 48.4368 162.281 53.7534 160.052L75.7173 150.843L75.1938 151.044C82.3468 146.004 81.2076 133.058 68.1968 135.65L14.5337 158.148C9.21714 160.377 3.0823 157.882 0.830566 152.575C-1.42107 147.268 1.06294 141.159 6.37939 138.93L56.5708 117.887L55.0396 118.389C63.2639 113.143 60.9567 98.4945 44.5571 102.317L24.1782 110.861C18.8616 113.09 12.7258 110.594 10.4741 105.287C8.22286 99.9803 10.7077 93.8716 16.0239 91.6426L76.2993 66.373C76.5176 66.2815 76.7378 66.1997 76.9585 66.124L153.604 33.9922ZM27.1753 169.663C32.4919 167.434 38.6268 169.929 40.8784 175.236C43.13 180.543 40.6452 186.652 35.3286 188.881L25.3042 193.084C19.9875 195.313 13.8518 192.818 11.6001 187.511C9.34845 182.204 11.8333 176.094 17.1499 173.865L27.1753 169.663Z" fill="#FF0000"/>
</svg>
